<svg width="24" height="25" viewBox="0 0 24 25" fill="none" xmlns="http://www.w3.org/2000/svg">
<path d="M19.325 9.91064C19.325 9.91064 18.782 16.7987 18.467 19.7002C18.317 21.086 17.48 21.898 16.109 21.9236C13.5 21.9717 10.888 21.9747 8.28003 21.9185C6.96103 21.8909 6.13803 21.0686 5.99103 19.7073C5.67403 16.7803 5.13403 9.91064 5.13403 9.91064" stroke="black" stroke-width="1.5" stroke-linecap="round" stroke-linejoin="round"/>
<path d="M20.7082 6.60878H3.75024" stroke="black" stroke-width="1.5" stroke-linecap="round" stroke-linejoin="round"/>
<path d="M17.4406 6.60882C16.6556 6.60882 15.9796 6.04121 15.8256 5.25473L15.5826 4.0111C15.4326 3.43735 14.9246 3.04053 14.3456 3.04053H10.1126C9.53358 3.04053 9.02558 3.43735 8.87558 4.0111L8.63258 5.25473C8.47858 6.04121 7.80258 6.60882 7.01758 6.60882" stroke="black" stroke-width="1.5" stroke-linecap="round" stroke-linejoin="round"/>
</svg>
