<svg width="24" height="25" viewBox="0 0 24 25" fill="none" xmlns="http://www.w3.org/2000/svg">
<path d="M11.4922 3.125H7.75324C4.67824 3.125 2.75024 5.35148 2.75024 8.50352V17.0065C2.75024 20.1585 4.66924 22.385 7.75324 22.385H16.5772C19.6622 22.385 21.5812 20.1585 21.5812 17.0065V12.8869" stroke="black" stroke-width="1.5" stroke-linecap="round" stroke-linejoin="round"/>
<path fill-rule="evenodd" clip-rule="evenodd" d="M8.82763 11.4418L16.3006 3.79892C17.2316 2.84779 18.7406 2.84779 19.6716 3.79892L20.8886 5.04358C21.8196 5.99574 21.8196 7.54006 20.8886 8.4912L13.3796 16.1709C12.9726 16.5871 12.4206 16.8213 11.8446 16.8213H8.09863L8.19263 12.9554C8.20663 12.3868 8.43363 11.8447 8.82763 11.4418Z" stroke="black" stroke-width="1.5" stroke-linecap="round" stroke-linejoin="round"/>
<path d="M15.165 4.97974L19.731 9.64951" stroke="black" stroke-width="1.5" stroke-linecap="round" stroke-linejoin="round"/>
</svg>
